<?xml version="1.0" encoding="utf-8"?>
<!-- Generator: Adobe Illustrator 16.0.0, SVG Export Plug-In . SVG Version: 6.00 Build 0)  -->
<!DOCTYPE svg PUBLIC "-//W3C//DTD SVG 1.1//EN" "http://www.w3.org/Graphics/SVG/1.1/DTD/svg11.dtd">
<svg version="1.1" id="Layer_1" xmlns="http://www.w3.org/2000/svg" xmlns:xlink="http://www.w3.org/1999/xlink" x="0px" y="0px"
	 width="612px" height="792px" viewBox="0 0 612 792" enable-background="new 0 0 612 792" xml:space="preserve">
<g>
	<rect x="111" y="73.667" fill="#FFFFFF" width="140" height="57.333"/>
	<g>
		<polyline fill="none" stroke="#000000" stroke-miterlimit="10" points="251,125 251,131 245,131 		"/>
		
			<line fill="none" stroke="#000000" stroke-miterlimit="10" stroke-dasharray="11.6364,11.6364" x1="233.364" y1="131" x2="122.818" y2="131"/>
		<polyline fill="none" stroke="#000000" stroke-miterlimit="10" points="117,131 111,131 111,125 		"/>
		
			<line fill="none" stroke="#000000" stroke-miterlimit="10" stroke-dasharray="15.1112,15.1112" x1="111" y1="109.889" x2="111" y2="87.223"/>
		<polyline fill="none" stroke="#000000" stroke-miterlimit="10" points="111,79.667 111,73.667 117,73.667 		"/>
		
			<line fill="none" stroke="#000000" stroke-miterlimit="10" stroke-dasharray="11.6364,11.6364" x1="128.636" y1="73.667" x2="239.182" y2="73.667"/>
		<polyline fill="none" stroke="#000000" stroke-miterlimit="10" points="245,73.667 251,73.667 251,79.667 		"/>
		
			<line fill="none" stroke="#000000" stroke-miterlimit="10" stroke-dasharray="15.1112,15.1112" x1="251" y1="94.778" x2="251" y2="117.445"/>
	</g>
</g>
<text transform="matrix(1 0 0 1 141.3042 96.3335)"><tspan x="0" y="0" font-family="'MyriadPro-Regular'" font-size="10">User-specific Read </tspan><tspan x="2.3" y="12" font-family="'MyriadPro-Regular'" font-size="10">Mapping Pipeline</tspan></text>
<g>
	<g>
		<line fill="none" stroke="#000000" stroke-width="2" stroke-miterlimit="10" x1="176.333" y1="131" x2="176.333" y2="168.546"/>
		<g>
			<polygon points="176.333,182.667 168.203,162.769 176.333,167.49 184.462,162.769 			"/>
		</g>
	</g>
</g>
<rect x="111" y="183.667" fill="#FFFFFF" stroke="#000000" stroke-miterlimit="10" width="140" height="57.333"/>
<text transform="matrix(1 0 0 1 151.3335 219.3335)" font-family="'MyriadPro-Regular'" font-size="17">XY-Align</text>
<line fill="none" stroke="#000000" stroke-miterlimit="10" x1="251" y1="198.667" x2="306" y2="156"/>
<rect x="306" y="125.333" fill="#FFFFFF" stroke="#000000" stroke-miterlimit="10" width="140" height="57.333"/>
<text transform="matrix(1 0 0 1 317.9131 138.667)"><tspan x="0" y="0" font-family="'MyriadPro-Regular'" font-size="10">Generate High-Confidence </tspan><tspan x="18.814" y="12" font-family="'MyriadPro-Regular'" font-size="10">Intervals based on</tspan><tspan x="1.435" y="24" font-family="'MyriadPro-Regular'" font-size="10">Mapping Quality (MQ) and</tspan><tspan x="21.18" y="36" font-family="'MyriadPro-Regular'" font-size="10"> Read Depth (RD)</tspan></text>
<rect x="306.667" y="198.667" fill="#FFFFFF" stroke="#000000" stroke-miterlimit="10" width="140" height="57.333"/>
<text transform="matrix(1 0 0 1 341.6924 217.667)"><tspan x="0" y="0" font-family="'MyriadPro-Regular'" font-size="10">Variant Call with </tspan><tspan x="-33.699" y="12" font-family="'MyriadPro-Regular'" font-size="10">Platypus Within High Confidence</tspan><tspan x="-33.234" y="24" font-family="'MyriadPro-Regular'" font-size="10">Regions to get Read Balance (RB)</tspan></text>
<rect x="306.667" y="271.333" fill="#FFFFFF" stroke="#000000" stroke-miterlimit="10" width="140" height="57.333"/>
<text transform="matrix(1 0 0 1 322.5938 300)"><tspan x="0" y="0" font-family="'MyriadPro-Regular'" font-size="10">Infer Chromosomal Ploidy</tspan><tspan x="9.875" y="12" font-family="'MyriadPro-Regular'" font-size="10">Based on MQ, RD, RB </tspan></text>
<line fill="none" stroke="#000000" stroke-miterlimit="10" x1="374.667" y1="183" x2="374.667" y2="198.667"/>
<line fill="none" stroke="#000000" stroke-miterlimit="10" x1="374.667" y1="256" x2="374.667" y2="271.667"/>
<line fill="none" stroke="#000000" stroke-miterlimit="10" x1="306" y1="300" x2="251" y2="227.334"/>
<g>
	<g>
		<line fill="none" stroke="#000000" stroke-width="2" stroke-miterlimit="10" x1="176.333" y1="241" x2="176.333" y2="279.212"/>
		<g>
			<polygon points="176.333,293.333 168.203,273.435 176.333,278.157 184.462,273.435 			"/>
		</g>
	</g>
</g>
<rect x="111" y="294" fill="#FFFFFF" stroke="#000000" stroke-miterlimit="10" width="140" height="57.333"/>
<text transform="matrix(1 0 0 1 143.2974 324)"><tspan x="0" y="0" font-family="'MyriadPro-Regular'" font-size="10">Re-map Data To </tspan><tspan x="5.065" y="12" font-family="'MyriadPro-Regular'" font-size="10">Correct Ploidy</tspan></text>
<g>
	<rect x="107.667" y="403.334" fill="#FFFFFF" width="140" height="57.334"/>
	<g>
		<polyline fill="none" stroke="#000000" stroke-miterlimit="10" points="247.667,454.668 247.667,460.668 241.667,460.668 		"/>
		
			<line fill="none" stroke="#000000" stroke-miterlimit="10" stroke-dasharray="11.6364,11.6364" x1="230.031" y1="460.668" x2="119.485" y2="460.668"/>
		<polyline fill="none" stroke="#000000" stroke-miterlimit="10" points="113.667,460.668 107.667,460.668 107.667,454.668 		"/>
		
			<line fill="none" stroke="#000000" stroke-miterlimit="10" stroke-dasharray="15.1113,15.1113" x1="107.667" y1="439.557" x2="107.667" y2="416.89"/>
		<polyline fill="none" stroke="#000000" stroke-miterlimit="10" points="107.667,409.334 107.667,403.334 113.667,403.334 		"/>
		
			<line fill="none" stroke="#000000" stroke-miterlimit="10" stroke-dasharray="11.6364,11.6364" x1="125.303" y1="403.334" x2="235.849" y2="403.334"/>
		<polyline fill="none" stroke="#000000" stroke-miterlimit="10" points="241.667,403.334 247.667,403.334 247.667,409.334 		"/>
		
			<line fill="none" stroke="#000000" stroke-miterlimit="10" stroke-dasharray="15.1113,15.1113" x1="247.667" y1="424.445" x2="247.667" y2="447.112"/>
	</g>
</g>
<text transform="matrix(1 0 0 1 146.0186 417.001)"><tspan x="0" y="0" font-family="'MyriadPro-Regular'" font-size="10">Variant call with </tspan><tspan x="-16.035" y="12" font-family="'MyriadPro-Regular'" font-size="10">highest efficiency given </tspan><tspan x="-4.305" y="24" font-family="'MyriadPro-Regular'" font-size="10">known ploidy and </tspan><tspan x="-16.3" y="36" font-family="'MyriadPro-Regular'" font-size="10">high confident windows</tspan></text>
<g>
	<g>
		
			<line fill="none" stroke="#000000" stroke-width="2" stroke-miterlimit="10" x1="176.333" y1="351.001" x2="176.333" y2="389.213"/>
		<g>
			<polygon points="176.333,403.334 168.202,383.436 176.333,388.157 184.462,383.436 			"/>
		</g>
	</g>
</g>
<rect x="241" y="198.667" fill="#FFFFFF" width="17.333" height="28.667"/>
</svg>
